<svg width="24" height="24" viewBox="0 0 24 24" fill="none" xmlns="http://www.w3.org/2000/svg">
<path fill-rule="evenodd" clip-rule="evenodd" d="M16.8615 10.6154C16.8615 14.065 14.065 16.8615 10.6154 16.8615C7.16572 16.8615 4.36923 14.065 4.36923 10.6154C4.36923 7.16572 7.16572 4.36923 10.6154 4.36923C14.065 4.36923 16.8615 7.16572 16.8615 10.6154ZM15.569 16.7004C14.2182 17.8014 12.4939 18.4615 10.6154 18.4615C6.28207 18.4615 2.76923 14.9487 2.76923 10.6154C2.76923 6.28207 6.28207 2.76923 10.6154 2.76923C14.9487 2.76923 18.4615 6.28207 18.4615 10.6154C18.4615 12.4939 17.8014 14.2182 16.7004 15.569L21.7965 20.6651C22.1089 20.9775 22.1089 21.484 21.7965 21.7964C21.4841 22.1089 20.9775 22.1089 20.6651 21.7964L15.569 16.7004Z" fill="#414951"/>
</svg>
